<?xml version="1.0" standalone="no"?>
<!DOCTYPE svg PUBLIC "-//W3C//DTD SVG 20010904//EN"
 "http://www.w3.org/TR/2001/REC-SVG-20010904/DTD/svg10.dtd">
<svg version="1.0" xmlns="http://www.w3.org/2000/svg"
 width="267.000000pt" height="267.000000pt" viewBox="0 0 267.000000 267.000000"
 preserveAspectRatio="xMidYMid meet">
<metadata>
Created by potrace 1.14, written by Peter Selinger 2001-2017
</metadata>
<g transform="translate(0.000000,267.000000) scale(0.100000,-0.100000)"
fill="#000000" stroke="none">
<path d="M1675 2562 c4 -34 -20 -39 -170 -37 -137 1 -161 -5 -145 -35 6 -11 7
-21 3 -23 -5 -3 -109 -5 -233 -5 -124 0 -235 -1 -247 -1 -19 -1 -23 -7 -23
-31 l0 -30 -312 -2 -311 -3 1 -42 c0 -24 1 -45 2 -48 3 -7 3 -44 0 -47 -6 -9
-4 -128 3 -128 4 0 4 -8 -2 -17 -5 -9 -5 -26 -1 -38 5 -12 4 -28 0 -35 -5 -8
-4 -22 1 -32 6 -12 6 -18 0 -18 -6 0 -6 -11 -1 -30 5 -16 6 -30 2 -30 -4 0 -6
-20 -4 -45 4 -44 4 -45 -27 -45 -17 0 -31 -3 -32 -7 -1 -5 -2 -129 -3 -278
l-1 -270 -30 -5 -31 -5 1 -135 c1 -156 -3 -175 -36 -175 l-24 0 -2 -152 -2
-153 30 0 c26 0 29 3 29 30 0 26 3 30 29 30 25 0 30 5 35 33 5 28 10 33 34 33
21 -1 27 4 28 22 1 12 2 26 3 31 0 4 13 8 28 7 16 -1 28 5 29 12 1 6 2 21 3
33 1 16 7 20 29 17 24 -3 27 0 27 27 1 19 6 31 15 31 8 1 23 2 33 3 11 1 17 9
17 26 0 25 34 49 52 38 8 -4 12 11 9 34 -3 21 22 28 103 28 l80 0 8 32 c8 30
10 31 60 30 56 0 73 -10 73 -42 0 -19 7 -20 110 -21 141 -2 137 -1 134 -21 -3
-35 1 -42 28 -40 17 2 27 9 29 20 5 34 12 44 33 42 27 -2 35 -11 36 -38 0 -19
6 -22 50 -24 28 -1 56 -2 62 -2 7 -1 12 -4 12 -8 -1 -5 -1 -18 0 -31 1 -19 6
-22 32 -20 23 2 29 6 26 19 -7 28 8 41 50 43 67 4 78 -4 79 -60 2 -63 2 -61
19 -68 20 -7 45 20 40 45 -4 19 0 20 95 18 97 -1 98 -2 94 -25 -5 -29 15 -40
76 -39 47 0 46 -1 41 50 0 8 -4 14 -8 14 -32 -5 -54 3 -52 19 2 29 -1 43 -8
39 -5 -3 -18 -1 -31 4 -21 8 -23 14 -20 65 3 52 5 57 27 61 31 4 35 9 36 36 0
17 7 23 30 27 22 4 30 10 30 25 0 30 12 43 39 40 23 -3 23 -1 23 86 -1 49 -3
89 -6 90 -31 6 -159 3 -155 -3 3 -4 -2 -5 -10 -2 -11 4 -14 -1 -13 -23 2 -26
5 -28 52 -29 28 -1 56 -2 63 -3 8 -1 12 -20 12 -61 0 -57 -1 -60 -25 -60 -25
0 -46 -26 -38 -47 5 -13 1 -14 -39 -17 -19 -1 -23 -7 -23 -31 l0 -30 -62 0
c-50 -1 -63 2 -64 15 -1 17 -1 79 0 97 1 6 13 13 29 15 21 2 28 9 30 31 3 24
0 27 -27 27 -33 0 -32 -4 -35 85 -1 33 -5 40 -21 40 -54 1 -59 54 -7 67 43 11
40 50 -4 58 l-29 5 0 120 -1 120 -29 5 c-27 5 -30 9 -32 45 -3 58 5 88 22 81
8 -3 17 -1 20 5 4 5 10 7 14 5 4 -3 8 7 9 21 3 32 3 32 34 35 18 2 25 8 24 23
-2 29 14 42 43 37 15 -3 23 -2 20 2 -14 15 7 61 29 62 40 3 43 4 37 14 -10 16
5 52 19 47 16 -6 41 8 42 25 0 7 2 19 2 26 1 6 15 12 31 12 25 0 29 4 27 23
-3 27 11 42 39 42 14 0 20 7 20 23 1 25 21 43 41 35 14 -5 26 12 28 41 1 16 7
21 29 20 15 -1 28 4 28 10 1 6 2 16 4 21 1 6 3 15 3 22 1 6 14 13 29 15 18 2
27 10 29 26 2 12 -2 23 -9 24 -6 1 -105 2 -218 3 l-207 1 3 -24z"/>
<path d="M1742 2020 c-5 -3 -9 -16 -9 -28 -1 -17 2 -22 13 -18 8 3 14 2 14 -2
0 -4 21 -7 47 -7 l48 0 3 -62 3 -63 -31 0 c-28 0 -35 -8 -31 -37 2 -14 -15
-26 -42 -27 -14 -1 -21 -9 -23 -27 -2 -22 2 -28 23 -32 18 -3 26 1 32 17 5 11
6 27 4 34 -5 12 7 16 40 13 9 -1 18 4 19 11 0 7 2 18 2 23 3 22 17 33 36 28
11 -3 21 -1 22 3 4 28 4 174 -1 175 -21 4 -163 4 -169 -1z"/>
<path d="M1621 1962 c-15 -5 -14 -49 2 -54 6 -2 32 -4 56 -4 40 1 45 4 52 29
4 15 4 27 1 28 -26 3 -102 4 -111 1z"/>
<path d="M1548 1870 c4 -26 8 -30 30 -27 19 3 26 10 29 30 3 25 1 27 -30 27
-32 0 -33 -2 -29 -30z"/>
<path d="M1672 1689 c0 -21 5 -28 24 -32 27 -5 38 9 32 39 -2 11 -13 19 -29
19 -22 2 -26 -3 -27 -26z"/>
<path d="M1619 1657 c-7 -15 -7 -57 1 -62 20 -12 50 6 50 31 0 13 -3 24 -7 25
-5 0 -16 2 -25 4 -10 2 -18 3 -19 2z"/>
<path d="M1694 1402 c-15 -2 -21 -10 -21 -28 0 -13 2 -25 6 -25 43 -9 51 -5
51 22 0 31 -6 37 -36 31z"/>
<path d="M770 1091 c0 -5 -7 -8 -16 -7 -11 0 -18 -7 -19 -21 -2 -24 18 -37 45
-28 21 7 24 51 4 59 -8 3 -14 2 -14 -3z"/>
<path d="M679 1028 c-1 -2 -2 -25 -3 -53 -1 -59 -11 -79 -37 -72 -23 6 -26 -7
-27 -105 l-1 -76 92 1 c91 2 92 2 92 27 0 23 -4 25 -60 30 l-60 5 -2 63 c-1
57 1 63 16 59 40 -10 52 23 42 116 -1 6 -49 11 -52 5z"/>
<path d="M989 1023 c-1 -4 -1 -15 0 -25 2 -19 -16 -33 -43 -33 -12 0 -20 -8
-22 -22 -2 -13 1 -23 7 -23 5 0 8 -4 5 -8 -3 -5 8 -6 24 -4 29 4 35 20 15 34
-6 5 -5 8 3 8 7 0 10 5 7 10 -3 6 2 11 12 11 10 1 25 2 33 3 8 0 15 11 15 25
0 19 -6 25 -27 28 -16 2 -29 0 -29 -4z"/>
<path d="M1235 960 c-7 -12 1 -42 14 -50 24 -14 47 0 45 28 -1 22 -5 27 -28
27 -15 1 -29 -2 -31 -5z"/>
<path d="M874 902 c-5 -4 -10 -18 -12 -32 -2 -22 1 -26 24 -25 18 0 29 7 35
22 4 12 5 24 1 26 -20 11 -40 14 -48 9z"/>
<path d="M1178 896 c0 -6 -2 -48 -3 -93 l-1 -83 90 3 c90 2 91 2 91 27 0 23
-3 25 -60 30 l-60 5 -2 45 c-1 25 -2 52 -2 61 -1 17 -50 22 -53 5z"/>
<path d="M1426 892 c-4 -10 -4 -26 -1 -34 6 -15 39 -18 52 -5 12 13 10 47 -3
47 -7 0 -19 3 -27 6 -10 3 -18 -2 -21 -14z"/>
<path d="M1864 895 c-11 -28 1 -49 26 -49 20 0 25 5 27 27 1 15 -1 27 -5 28
-4 0 -15 2 -25 4 -10 2 -21 -3 -23 -10z"/>
<path d="M815 839 c-16 -4 -25 -7 -19 -8 6 0 10 -11 10 -22 -1 -15 6 -23 22
-25 26 -5 39 18 26 45 -7 13 -16 15 -39 10z"/>
<path d="M1370 834 c-19 -22 -8 -49 20 -49 33 0 42 49 11 58 -11 3 -25 -1 -31
-9z"/>
<path d="M1932 841 c-5 -3 -9 -17 -8 -31 1 -19 6 -25 26 -25 20 0 26 6 28 26
2 19 -2 28 -16 31 -11 3 -24 3 -30 -1z"/>
<path d="M1984 753 c1 -21 7 -27 27 -30 19 -2 28 2 31 14 8 30 -2 43 -31 43
-24 0 -28 -4 -27 -27z"/>
<path d="M2049 715 c-7 -30 0 -49 19 -56 16 -6 24 -4 32 11 14 26 2 50 -26 50
-13 0 -24 -2 -25 -5z"/>
<path d="M2110 625 c0 -32 3 -33 50 -26 9 1 11 51 2 52 -47 9 -52 6 -52 -26z"/>
<path d="M2175 592 c-3 -3 -5 -17 -5 -32 0 -23 4 -27 28 -25 22 1 28 6 30 29
2 18 0 26 -7 21 -6 -3 -11 -2 -11 3 0 9 -27 12 -35 4z"/>
<path d="M2233 508 c-2 -24 12 -38 40 -38 12 0 17 8 17 30 0 26 -4 30 -28 30
-21 0 -28 -5 -29 -22z"/>
<path d="M2299 467 c0 -1 -2 -14 -3 -29 -1 -20 4 -28 19 -30 12 -3 25 0 31 6
8 10 9 18 5 44 -1 7 -50 16 -52 9z"/>
<path d="M2356 403 c-5 -5 9 -58 15 -57 38 6 49 14 46 35 -3 17 -11 23 -30 24
-15 1 -29 0 -31 -2z"/>
<path d="M2425 333 c-22 -22 -2 -55 30 -49 19 4 25 0 26 -15 1 -10 2 -25 3
-31 0 -7 13 -14 29 -16 24 -3 27 0 27 27 0 26 -4 31 -25 31 -24 0 -46 25 -38
46 6 18 -36 24 -52 7z"/>
<path d="M2548 213 c-2 -4 -3 -14 -2 -20 1 -7 2 -17 3 -23 0 -5 14 -10 29 -10
24 0 28 4 27 28 -1 21 -7 28 -27 30 -15 2 -28 0 -30 -5z"/>
</g>
</svg>
